<svg xmlns="http://www.w3.org/2000/svg" xmlns:xlink="http://www.w3.org/1999/xlink" width="453" zoomAndPan="magnify" viewBox="0 0 339.75 215.249992" height="287" preserveAspectRatio="xMidYMid meet" version="1.0"><defs><g/><clipPath id="f1e71198fd"><rect x="0" width="29" y="0" height="90"/></clipPath><clipPath id="586edcdc91"><path d="M 7 0.00390625 L 108.625 0.00390625 L 108.625 102.050781 L 7 102.050781 Z M 7 0.00390625 " clip-rule="nonzero"/></clipPath><clipPath id="24b792b6ce"><path d="M 14.476562 7.488281 L 37.96875 7.488281 L 37.96875 42.679688 L 14.476562 42.679688 Z M 14.476562 7.488281 " clip-rule="nonzero"/></clipPath><clipPath id="7a492a5136"><path d="M 0.476562 0.488281 L 23.96875 0.488281 L 23.96875 35.679688 L 0.476562 35.679688 Z M 0.476562 0.488281 " clip-rule="nonzero"/></clipPath><clipPath id="238e8f604a"><rect x="0" width="24" y="0" height="36"/></clipPath><clipPath id="359d122b2a"><path d="M 44.058594 7.488281 L 55.855469 7.488281 L 55.855469 48.480469 L 44.058594 48.480469 Z M 44.058594 7.488281 " clip-rule="nonzero"/></clipPath><clipPath id="efbeb4a919"><path d="M 0.0585938 0.488281 L 11.855469 0.488281 L 11.855469 41.480469 L 0.0585938 41.480469 Z M 0.0585938 0.488281 " clip-rule="nonzero"/></clipPath><clipPath id="8f360636d6"><rect x="0" width="12" y="0" height="42"/></clipPath><clipPath id="6a78c77c96"><path d="M 14.476562 7.488281 L 26.269531 7.488281 L 26.269531 48.480469 L 14.476562 48.480469 Z M 14.476562 7.488281 " clip-rule="nonzero"/></clipPath><clipPath id="1f373c0c23"><path d="M 0.476562 0.488281 L 12.269531 0.488281 L 12.269531 41.480469 L 0.476562 41.480469 Z M 0.476562 0.488281 " clip-rule="nonzero"/></clipPath><clipPath id="6c574e79cd"><rect x="0" width="13" y="0" height="42"/></clipPath><clipPath id="d123ecb00e"><path d="M 32.265625 13.433594 L 45.316406 13.433594 L 45.316406 48.480469 L 32.265625 48.480469 Z M 32.265625 13.433594 " clip-rule="nonzero"/></clipPath><clipPath id="96d0f2b798"><path d="M 0.265625 0.433594 L 13.316406 0.433594 L 13.316406 35.480469 L 0.265625 35.480469 Z M 0.265625 0.433594 " clip-rule="nonzero"/></clipPath><clipPath id="2c228a0e7b"><rect x="0" width="14" y="0" height="36"/></clipPath><clipPath id="be088e8503"><path d="M 60.683594 7.488281 L 102.132812 7.488281 L 102.132812 48.480469 L 60.683594 48.480469 Z M 60.683594 7.488281 " clip-rule="nonzero"/></clipPath><clipPath id="9e461b827d"><path d="M 0.683594 0.488281 L 42.132812 0.488281 L 42.132812 41.480469 L 0.683594 41.480469 Z M 0.683594 0.488281 " clip-rule="nonzero"/></clipPath><clipPath id="d7ec4589ae"><rect x="0" width="43" y="0" height="42"/></clipPath><clipPath id="cd83b8976a"><path d="M 14.476562 53.839844 L 55.925781 53.839844 L 55.925781 95.71875 L 14.476562 95.71875 Z M 14.476562 53.839844 " clip-rule="nonzero"/></clipPath><clipPath id="e3aad92990"><path d="M 0.476562 0.839844 L 41.925781 0.839844 L 41.925781 42.71875 L 0.476562 42.71875 Z M 0.476562 0.839844 " clip-rule="nonzero"/></clipPath><clipPath id="ff9346b829"><rect x="0" width="42" y="0" height="43"/></clipPath><clipPath id="6b6de1c418"><path d="M 90.804688 59.4375 L 102.132812 59.4375 L 102.132812 89.851562 L 90.804688 89.851562 Z M 90.804688 59.4375 " clip-rule="nonzero"/></clipPath><clipPath id="f07f519b84"><path d="M 0.804688 0.4375 L 12.132812 0.4375 L 12.132812 30.851562 L 0.804688 30.851562 Z M 0.804688 0.4375 " clip-rule="nonzero"/></clipPath><clipPath id="1caaa65363"><rect x="0" width="13" y="0" height="31"/></clipPath><clipPath id="fcbcab78e1"><path d="M 60.683594 79.285156 L 96.265625 79.285156 L 96.265625 95.71875 L 60.683594 95.71875 Z M 60.683594 79.285156 " clip-rule="nonzero"/></clipPath><clipPath id="edb77e1fbb"><path d="M 0.683594 0.285156 L 36.265625 0.285156 L 36.265625 16.71875 L 0.683594 16.71875 Z M 0.683594 0.285156 " clip-rule="nonzero"/></clipPath><clipPath id="6356eaddd1"><rect x="0" width="37" y="0" height="17"/></clipPath><clipPath id="7e7099f80d"><path d="M 60.683594 53.839844 L 96.265625 53.839844 L 96.265625 70.269531 L 60.683594 70.269531 Z M 60.683594 53.839844 " clip-rule="nonzero"/></clipPath><clipPath id="5555665f14"><path d="M 0.683594 0.839844 L 36.265625 0.839844 L 36.265625 17.269531 L 0.683594 17.269531 Z M 0.683594 0.839844 " clip-rule="nonzero"/></clipPath><clipPath id="a895f93362"><rect x="0" width="37" y="0" height="18"/></clipPath><clipPath id="fcae361106"><path d="M 60.683594 66.5625 L 71.960938 66.5625 L 71.960938 82.992188 L 60.683594 82.992188 Z M 60.683594 66.5625 " clip-rule="nonzero"/></clipPath><clipPath id="d9d7ac4378"><path d="M 0.683594 0.5625 L 11.960938 0.5625 L 11.960938 16.992188 L 0.683594 16.992188 Z M 0.683594 0.5625 " clip-rule="nonzero"/></clipPath><clipPath id="55e095b090"><rect x="0" width="12" y="0" height="17"/></clipPath><clipPath id="b71625b04e"><path d="M 86.910156 66.5625 L 98.1875 66.5625 L 98.1875 82.992188 L 86.910156 82.992188 Z M 86.910156 66.5625 " clip-rule="nonzero"/></clipPath><clipPath id="9fb4617495"><path d="M 0.910156 0.5625 L 12.1875 0.5625 L 12.1875 16.992188 L 0.910156 16.992188 Z M 0.910156 0.5625 " clip-rule="nonzero"/></clipPath><clipPath id="29e530d6e6"><rect x="0" width="13" y="0" height="17"/></clipPath><clipPath id="5906adc255"><rect x="0" width="116" y="0" height="109"/></clipPath></defs><g fill="#fdfdfd" fill-opacity="1"><g transform="translate(19.000542, 172.935871)"><g><path d="M 4.25 -45.6875 L 18.921875 -45.6875 L 34.921875 -16.96875 L 35.5625 -16.96875 L 34.59375 -22.84375 L 34.59375 -45.6875 L 46.671875 -45.6875 L 46.671875 0 L 31.984375 0 L 15.984375 -28.71875 L 15.34375 -28.71875 L 16.3125 -22.84375 L 16.3125 0 L 4.25 0 Z M 4.25 -45.6875 "/></g></g></g><g fill="#fdfdfd" fill-opacity="1"><g transform="translate(67.812491, 172.935871)"><g><path d="M 15.984375 0.984375 C 12.023438 0.984375 8.914062 -0.203125 6.65625 -2.578125 C 4.394531 -4.953125 3.265625 -8.441406 3.265625 -13.046875 L 3.265625 -33.9375 L 14.359375 -33.9375 L 14.359375 -14.6875 C 14.359375 -12.726562 14.878906 -11.203125 15.921875 -10.109375 C 16.960938 -9.023438 18.398438 -8.484375 20.234375 -8.484375 C 22.054688 -8.484375 23.597656 -9.15625 24.859375 -10.5 C 26.128906 -11.851562 26.765625 -13.679688 26.765625 -15.984375 L 26.765625 -33.9375 L 37.859375 -33.9375 L 37.859375 0 L 26.765625 0 L 26.765625 -4.5625 L 26.109375 -4.5625 C 25.492188 -3.476562 24.707031 -2.546875 23.75 -1.765625 C 22.925781 -1.066406 21.882812 -0.4375 20.625 0.125 C 19.363281 0.695312 17.816406 0.984375 15.984375 0.984375 Z M 15.984375 0.984375 "/></g></g></g><g fill="#fdfdfd" fill-opacity="1"><g transform="translate(106.8359, 172.935871)"><g><path d="M 3.265625 -45.6875 L 14.359375 -45.6875 L 14.359375 -8.8125 L 21.859375 -8.8125 L 21.859375 0 L 3.265625 0 Z M 3.265625 -45.6875 "/></g></g></g><g fill="#fdfdfd" fill-opacity="1"><g transform="translate(127.261076, 172.935871)"><g><path d="M 3.265625 -45.6875 L 14.359375 -45.6875 L 14.359375 -8.8125 L 21.859375 -8.8125 L 21.859375 0 L 3.265625 0 Z M 3.265625 -45.6875 "/></g></g></g><g fill="#fdfdfd" fill-opacity="1"><g transform="translate(287.730588, 173.156682)"><g><path d="M 5.21875 -25.125 L 0.984375 -25.125 L 0.984375 -33.9375 L 5.21875 -33.9375 L 5.21875 -41.125 L 16.3125 -41.125 L 16.3125 -33.9375 L 25.125 -33.9375 L 25.125 -25.125 L 16.3125 -25.125 L 16.3125 -8.8125 L 25.78125 -8.8125 L 25.78125 0 L 5.21875 0 Z M 5.21875 -25.125 "/></g></g></g><g fill="#fdfdfd" fill-opacity="1"><g transform="translate(149.579368, 172.935871)"><g><path d="M 4.25 -45.6875 L 21.921875 -45.6875 C 25.753906 -45.6875 29.222656 -45.085938 32.328125 -43.890625 C 35.441406 -42.691406 38.109375 -41.070312 40.328125 -39.03125 C 42.546875 -36.988281 44.265625 -34.570312 45.484375 -31.78125 C 46.703125 -29 47.3125 -26.019531 47.3125 -22.84375 C 47.3125 -19.664062 46.703125 -16.679688 45.484375 -13.890625 C 44.265625 -11.109375 42.546875 -8.695312 40.328125 -6.65625 C 38.109375 -4.613281 35.441406 -2.992188 32.328125 -1.796875 C 29.222656 -0.597656 25.753906 0 21.921875 0 L 4.25 0 Z M 21.859375 -11.09375 C 25.953125 -11.09375 29.097656 -12.144531 31.296875 -14.25 C 33.492188 -16.363281 34.59375 -19.226562 34.59375 -22.84375 C 34.59375 -26.457031 33.492188 -29.316406 31.296875 -31.421875 C 29.097656 -33.535156 25.953125 -34.59375 21.859375 -34.59375 L 16.3125 -34.59375 L 16.3125 -11.09375 Z M 21.859375 -11.09375 "/></g></g></g><g fill="#fdfdfd" fill-opacity="1"><g transform="translate(196.629332, 172.935871)"><g><path d="M 3.265625 -33.9375 L 14.03125 -33.9375 L 14.03125 -29.046875 L 14.6875 -29.046875 C 15.070312 -30.085938 15.660156 -31 16.453125 -31.78125 C 17.097656 -32.476562 17.941406 -33.117188 18.984375 -33.703125 C 20.035156 -34.296875 21.363281 -34.59375 22.96875 -34.59375 L 26.4375 -34.59375 L 26.4375 -23.828125 L 20.890625 -23.828125 C 18.929688 -23.828125 17.351562 -23.226562 16.15625 -22.03125 C 14.957031 -20.832031 14.359375 -19.253906 14.359375 -17.296875 L 14.359375 0 L 3.265625 0 Z M 3.265625 -33.9375 "/></g></g></g><g fill="#fdfdfd" fill-opacity="1"><g transform="translate(221.491931, 172.935871)"><g><path d="M 16.96875 0.984375 C 14.925781 0.984375 13 0.570312 11.1875 -0.25 C 9.382812 -1.082031 7.796875 -2.269531 6.421875 -3.8125 C 5.054688 -5.363281 3.96875 -7.25 3.15625 -9.46875 C 2.351562 -11.6875 1.953125 -14.1875 1.953125 -16.96875 C 1.953125 -19.75 2.351562 -22.25 3.15625 -24.46875 C 3.96875 -26.6875 5.054688 -28.566406 6.421875 -30.109375 C 7.796875 -31.660156 9.382812 -32.847656 11.1875 -33.671875 C 13 -34.503906 14.925781 -34.921875 16.96875 -34.921875 C 18.664062 -34.921875 20.144531 -34.625 21.40625 -34.03125 C 22.664062 -33.445312 23.734375 -32.804688 24.609375 -32.109375 C 25.609375 -31.328125 26.429688 -30.414062 27.078125 -29.375 L 27.734375 -29.375 L 27.734375 -33.9375 L 38.828125 -33.9375 L 38.828125 0 L 27.734375 0 L 27.734375 -4.5625 L 27.078125 -4.5625 C 26.429688 -3.476562 25.609375 -2.546875 24.609375 -1.765625 C 23.734375 -1.066406 22.664062 -0.4375 21.40625 0.125 C 20.144531 0.695312 18.664062 0.984375 16.96875 0.984375 Z M 20.5625 -8.484375 C 22.6875 -8.484375 24.410156 -9.203125 25.734375 -10.640625 C 27.066406 -12.078125 27.734375 -14.1875 27.734375 -16.96875 C 27.734375 -19.75 27.066406 -21.859375 25.734375 -23.296875 C 24.410156 -24.734375 22.6875 -25.453125 20.5625 -25.453125 C 18.425781 -25.453125 16.691406 -24.734375 15.359375 -23.296875 C 14.035156 -21.859375 13.375 -19.75 13.375 -16.96875 C 13.375 -14.1875 14.035156 -12.078125 15.359375 -10.640625 C 16.691406 -9.203125 18.425781 -8.484375 20.5625 -8.484375 Z M 20.5625 -8.484375 "/></g></g></g><g transform="matrix(1, 0, 0, 1, 260, 107)"><g clip-path="url(#f1e71198fd)"><g fill="#fdfdfd" fill-opacity="1"><g transform="translate(0.980475, 66.042951)"><g><path d="M 5.484375 -25.046875 L 1.03125 -25.046875 L 1.03125 -34.328125 L 5.484375 -34.328125 L 5.484375 -48.046875 L 26.765625 -48.046875 L 26.765625 -38.78125 L 17.15625 -38.78125 L 17.15625 -34.328125 L 25.046875 -34.328125 L 25.046875 -25.046875 L 17.15625 -25.046875 L 17.15625 0 L 5.484375 0 Z M 5.484375 -25.046875 "/></g></g></g></g></g><g transform="matrix(1, 0, 0, 1, 111, 0)"><g clip-path="url(#5906adc255)"><g clip-path="url(#586edcdc91)"><path stroke-linecap="butt" transform="matrix(0.635164, 0, 0, 0.635164, 7.000576, 0.0022762)" fill="none" stroke-linejoin="miter" d="M -0.000906209 0.00256635 L 160.341618 0.00256635 L 160.341618 160.66489 L -0.000906209 160.66489 Z M -0.000906209 0.00256635 " stroke="#fdfdfd" stroke-width="4.706792" stroke-opacity="1" stroke-miterlimit="4"/></g><g clip-path="url(#24b792b6ce)"><g transform="matrix(1, 0, 0, 1, 14, 7)"><g clip-path="url(#238e8f604a)"><g clip-path="url(#7a492a5136)"><path fill="#fdfdfd" d="M 0.476562 0.488281 L 23.96875 0.488281 L 23.96875 35.636719 L 0.476562 35.636719 Z M 0.476562 0.488281 " fill-opacity="1" fill-rule="nonzero"/></g></g></g></g><g clip-path="url(#359d122b2a)"><g transform="matrix(1, 0, 0, 1, 44, 7)"><g clip-path="url(#8f360636d6)"><g clip-path="url(#efbeb4a919)"><path fill="#fdfdfd" d="M 0.0585938 0.488281 L 11.855469 0.488281 L 11.855469 41.496094 L 0.0585938 41.496094 Z M 0.0585938 0.488281 " fill-opacity="1" fill-rule="nonzero"/></g></g></g></g><g clip-path="url(#6a78c77c96)"><g transform="matrix(1, 0, 0, 1, 14, 7)"><g clip-path="url(#6c574e79cd)"><g clip-path="url(#1f373c0c23)"><path fill="#fdfdfd" d="M 0.476562 0.488281 L 12.269531 0.488281 L 12.269531 41.496094 L 0.476562 41.496094 Z M 0.476562 0.488281 " fill-opacity="1" fill-rule="nonzero"/></g></g></g></g><g clip-path="url(#d123ecb00e)"><g transform="matrix(1, 0, 0, 1, 32, 13)"><g clip-path="url(#2c228a0e7b)"><g clip-path="url(#96d0f2b798)"><path fill="#fdfdfd" d="M 0.265625 0.433594 L 13.316406 0.433594 L 13.316406 35.457031 L 0.265625 35.457031 Z M 0.265625 0.433594 " fill-opacity="1" fill-rule="nonzero"/></g></g></g></g><g clip-path="url(#be088e8503)"><g transform="matrix(1, 0, 0, 1, 60, 7)"><g clip-path="url(#d7ec4589ae)"><g clip-path="url(#9e461b827d)"><path fill="#fdfdfd" d="M 0.683594 0.488281 L 42.15625 0.488281 L 42.15625 41.480469 L 0.683594 41.480469 Z M 0.683594 0.488281 " fill-opacity="1" fill-rule="nonzero"/></g></g></g></g><g clip-path="url(#cd83b8976a)"><g transform="matrix(1, 0, 0, 1, 14, 53)"><g clip-path="url(#ff9346b829)"><g clip-path="url(#e3aad92990)"><path fill="#fdfdfd" d="M 0.476562 0.839844 L 41.925781 0.839844 L 41.925781 42.773438 L 0.476562 42.773438 Z M 0.476562 0.839844 " fill-opacity="1" fill-rule="nonzero"/></g></g></g></g><g clip-path="url(#6b6de1c418)"><g transform="matrix(1, 0, 0, 1, 90, 59)"><g clip-path="url(#1caaa65363)"><g clip-path="url(#f07f519b84)"><path fill="#ffffff" d="M 0.804688 0.4375 L 12.132812 0.4375 L 12.132812 30.871094 L 0.804688 30.871094 Z M 0.804688 0.4375 " fill-opacity="1" fill-rule="nonzero"/></g></g></g></g><g clip-path="url(#fcbcab78e1)"><g transform="matrix(1, 0, 0, 1, 60, 79)"><g clip-path="url(#6356eaddd1)"><g clip-path="url(#edb77e1fbb)"><path fill="#ffffff" d="M 0.683594 0.285156 L 36.238281 0.285156 L 36.238281 16.71875 L 0.683594 16.71875 Z M 0.683594 0.285156 " fill-opacity="1" fill-rule="nonzero"/></g></g></g></g><g clip-path="url(#7e7099f80d)"><g transform="matrix(1, 0, 0, 1, 60, 53)"><g clip-path="url(#a895f93362)"><g clip-path="url(#5555665f14)"><path fill="#ffffff" d="M 0.683594 0.839844 L 36.238281 0.839844 L 36.238281 17.269531 L 0.683594 17.269531 Z M 0.683594 0.839844 " fill-opacity="1" fill-rule="nonzero"/></g></g></g></g><g clip-path="url(#fcae361106)"><g transform="matrix(1, 0, 0, 1, 60, 66)"><g clip-path="url(#55e095b090)"><g clip-path="url(#d9d7ac4378)"><path fill="#ffffff" d="M 0.683594 0.5625 L 11.960938 0.5625 L 11.960938 16.996094 L 0.683594 16.996094 Z M 0.683594 0.5625 " fill-opacity="1" fill-rule="nonzero"/></g></g></g></g><g clip-path="url(#b71625b04e)"><g transform="matrix(1, 0, 0, 1, 86, 66)"><g clip-path="url(#29e530d6e6)"><g clip-path="url(#9fb4617495)"><path fill="#ffffff" d="M 0.910156 0.5625 L 12.1875 0.5625 L 12.1875 16.996094 L 0.910156 16.996094 Z M 0.910156 0.5625 " fill-opacity="1" fill-rule="nonzero"/></g></g></g></g></g></g></svg>